<svg width="855" height="435" viewBox="0 0 855 435" fill="none" 
    xmlns="http://www.w3.org/2000/svg">
    <path fill-rule="evenodd" clip-rule="evenodd" d="M154.935 87.2443C161.411 91.1475 167.774 93.0333 170.76 92.2635C178.25 90.333 178.938 62.9351 173.143 52.1339C167.349 41.3328 137.558 36.625 136.057 58.0255C135.536 65.4529 138.654 72.0814 143.262 77.4901L135 116H159L154.935 87.2443Z" fill="#B28B67"/>
    <path fill-rule="evenodd" clip-rule="evenodd" d="M183.776 37.1604C183.279 35.4135 181.942 33.9178 180.14 33.474C179.704 33.3664 179.252 33.3229 178.803 33.341C178.642 33.3475 178.596 33.394 178.521 33.2812C178.465 33.1976 178.464 32.9934 178.441 32.8951C178.369 32.5896 178.28 32.2879 178.169 31.994C177.792 30.9917 177.159 30.1046 176.395 29.3573C174.967 27.9593 173.037 26.9944 171.032 26.8199C169.934 26.7244 168.845 26.9027 167.807 27.2597C167.27 27.4445 166.749 27.6746 166.242 27.929C166.089 28.0056 165.594 28.3806 165.441 28.3563C165.271 28.3295 164.931 27.9088 164.793 27.8032C163.092 26.4979 160.991 25.9847 158.872 26.0003C156.48 26.018 154.177 26.1375 152.182 27.5957C151.759 27.9044 151.357 28.2425 150.974 28.5983C150.772 28.7857 150.577 28.9801 150.391 29.1825C150.278 29.3047 150.169 29.4296 150.064 29.5579C149.885 29.7756 149.914 29.8471 149.663 29.6952C148.703 29.1119 147.591 28.8391 146.47 28.9768C145.805 29.0586 145.157 29.2584 144.542 29.5213C144.333 29.6109 143.849 29.9679 143.626 29.9714C143.404 29.9748 142.927 29.6438 142.699 29.5597C141.467 29.1052 140.14 28.9931 138.846 29.2032C137.511 29.4199 136.2 29.9525 135.069 30.6885C134.525 31.0425 134.05 31.4348 133.669 31.9612C133.504 32.1885 133.356 32.4289 133.169 32.6396C133.06 32.763 132.844 32.8897 132.785 33.0458C132.82 32.9523 131.325 32.376 131.184 32.3391C130.432 32.1428 129.667 32.1826 128.931 32.4248C127.547 32.8803 126.357 33.9016 125.379 34.9487C124.877 35.4866 124.437 36.0811 124.064 36.7145C123.885 37.0179 123.721 37.33 123.572 37.6487C123.499 37.8031 123.451 37.9962 123.356 38.1353C123.232 38.3146 123.15 38.318 122.927 38.3961C121.794 38.7929 120.762 39.4645 119.975 40.3721C119.18 41.2902 118.664 42.4209 118.448 43.6116C118.435 43.6817 118.427 43.9724 118.386 44.0103C118.33 44.0626 118.102 44.0395 118.016 44.0496C117.718 44.0846 117.421 44.1367 117.129 44.2059C116.59 44.3335 116.066 44.5211 115.57 44.7666C113.636 45.7235 112.253 47.5175 111.576 49.5361C110.865 51.6546 110.878 54.0816 111.727 56.1605C111.864 56.4963 112.027 56.8222 112.219 57.1305C112.336 57.3198 112.374 57.3203 112.298 57.5189C112.213 57.7398 112.057 57.9545 111.956 58.1703C111.626 58.8748 111.396 59.6219 111.25 60.3851C111.011 61.6368 110.892 62.9523 111.128 64.2136C111.238 64.7993 111.428 65.3718 111.719 65.8934C111.868 66.1594 112.042 66.4116 112.238 66.645C112.339 66.7661 112.447 66.8818 112.561 66.9927C112.625 67.056 112.71 67.1114 112.765 67.1822C112.899 67.3546 112.927 67.2128 112.858 67.4661C112.761 67.8201 112.542 68.1694 112.408 68.5139C112.269 68.8689 112.144 69.2288 112.03 69.5923C111.798 70.3282 111.602 71.0774 111.479 71.8395C111.244 73.3028 111.285 74.8619 111.977 76.2048C112.273 76.7793 112.698 77.2832 113.213 77.6752C113.465 77.8669 113.738 78.0322 114.024 78.168C114.171 78.2378 114.359 78.2678 114.426 78.4101C114.499 78.5631 114.391 78.867 114.367 79.038C114.154 80.5263 114.047 82.0889 114.49 83.5473C114.897 84.8907 115.794 86.0767 116.959 86.8619C119.219 88.3852 122.265 88.2993 124.639 87.0798C125.258 86.7619 125.837 86.3672 126.353 85.9017C127.669 87.6722 130.375 87.6162 132.297 87.1117C134.692 86.4832 136.614 84.818 137.721 82.63C139.235 84.473 142.412 83.875 143.462 81.8757C143.719 81.3864 143.871 80.8471 143.946 80.3014C143.986 80.0144 143.961 79.7249 143.99 79.4402C144.028 79.0774 144.27 78.7249 144.41 78.374C144.681 77.691 144.849 76.9855 144.857 76.2488C144.86 75.8641 144.812 75.4893 144.775 75.1077C144.742 74.7642 144.837 74.4442 144.892 74.1052C144.277 74.2064 143.529 74.0407 142.95 73.8626C142.383 73.6879 141.851 73.2276 141.45 72.8072C140.519 71.8311 139.951 70.5515 139.562 69.2779C138.708 66.4826 139.058 63.129 141.87 61.5949C143.18 60.8802 147.103 60.8826 148.663 61.2358C150.304 61.6071 152.163 65.2264 152.255 65.5666C152.311 65.7771 152.283 66.0377 152.476 66.178C152.901 66.4864 153.602 65.9511 153.916 65.6869C154.457 65.231 154.843 64.6243 155.177 64.0094C155.905 62.6696 156.492 61.2329 156.907 59.7663C157.227 58.6355 157.431 57.4695 157.849 56.3676C158.265 55.2712 158.92 54.2912 159.94 53.67C161.048 52.9943 162.319 52.6385 163.536 52.2138C164.743 51.793 165.929 51.2787 166.864 50.3857C167.07 50.1894 167.269 49.9807 167.435 49.7495C167.565 49.567 167.695 49.2177 167.894 49.102C168.203 48.922 168.655 49.3901 168.923 49.56C170.243 50.3986 171.345 51.5683 172.233 52.846C173.117 54.1167 173.842 55.3395 174.431 56.7584C174.868 57.8108 175.141 59.1586 175.909 60.0211C176.252 60.4062 178.803 60.6392 179.629 60.303C180.455 59.9667 181.381 59.0937 181.658 58.5466C181.942 57.9866 182.01 57.3715 181.889 56.7584C181.817 56.3978 181.672 56.0609 181.592 55.7066C181.525 55.4091 181.464 55.1278 181.319 54.8552C181.045 54.3386 180.576 53.9673 180.01 53.8121C180.599 53.2694 181.086 52.6203 181.424 51.8946C181.774 51.1407 182.072 50.2238 182.156 49.3964C182.224 48.7243 182.119 48.028 181.751 47.4504C181.365 46.8445 180.681 46.4492 180.089 46.0713C180.993 45.3642 181.767 44.5044 182.402 43.5524C183.639 41.7011 184.404 39.3675 183.776 37.1604Z" fill="#191847"/>
    <path fill-rule="evenodd" clip-rule="evenodd" d="M116.644 196C118.447 220.61 234.607 293.064 235.284 295.096C235.736 296.452 199.128 380.778 199.128 380.778L209.282 384.724C209.282 384.724 265.433 295.416 262.549 285.9C258.419 272.276 172.422 196.262 172.422 196.262L116.644 196Z" fill="#B28B67"/>
    <path fill-rule="evenodd" clip-rule="evenodd" d="M201.8 368.082L218.379 374.117C253.336 334.674 267.038 302.131 264.54 285.549C262.042 268.968 174.724 196.06 174.724 196.06L115.455 196.06C117.477 253.053 225.143 295.313 226.583 297.742C228.023 300.171 213.851 323.957 201.8 368.082Z" fill="#2F3676"/>
    <path fill-rule="evenodd" clip-rule="evenodd" d="M198.379 378.737C197.533 377.927 196.173 377.94 195.422 378.838C194.051 380.476 192.103 382.971 191.523 384.565C190.597 387.107 189.669 392.292 189.669 392.292C192.618 393.365 242.67 411.582 242.67 411.582C242.67 411.582 247.222 405.504 242.969 403.34C238.716 401.175 235.932 399.664 235.932 399.664L215.295 379.716C214.889 379.325 214.241 379.345 213.861 379.761L210.88 383.026C210.88 383.026 206.059 383.449 203.483 382.511C201.915 381.94 199.796 380.094 198.379 378.737Z" fill="#E4E4E4"/>
    <path fill-rule="evenodd" clip-rule="evenodd" d="M130 196L78.254 320.227L27.3958 425.25H39.3949L170.674 196H130Z" fill="#997659"/>
    <path fill-rule="evenodd" clip-rule="evenodd" d="M29.4496 419.284C28.3779 418.813 27.1043 419.29 26.7051 420.391C25.977 422.398 25 425.409 25 427.106C25 429.811 25.9012 435 25.9012 435C29.0392 435 82.3031 435 82.3031 435C82.3031 435 84.5016 427.732 79.7648 427.152C75.0281 426.573 71.895 426.106 71.895 426.106L45.68 414.419C45.1654 414.189 44.563 414.43 44.3483 414.951L42.6632 419.039C42.6632 419.039 38.2782 421.085 35.5367 421.085C33.8677 421.085 31.2457 420.074 29.4496 419.284Z" fill="#E4E4E4"/>
    <path fill-rule="evenodd" clip-rule="evenodd" d="M31.9885 403.433L58.6507 408.433C79.2658 378.125 165.541 253.852 175 196H115.644C84.0549 237.821 51.639 372.624 31.9885 403.433Z" fill="#5C63AB"/>
    <path fill-rule="evenodd" clip-rule="evenodd" d="M254.235 155.704L218 171.617L229.57 186.439L256.707 165.633C270.262 163.143 276.549 161.004 275.566 159.216C274.738 157.709 273.197 157.624 271.778 157.545C270.672 157.484 269.64 157.427 269.076 156.705C267.789 155.056 270.966 149.961 274.188 145.255C277.41 140.549 274.39 140.719 272.623 141.282C266.711 144.572 260.582 149.379 254.235 155.704ZM92 180.066L71.5083 176C57.6109 212.63 49.3256 232.702 46.6523 236.218C44.692 238.796 32.6026 245.437 24.4198 248.984C21.1354 250.407 21.8406 253.183 22.8039 254.071C28.8802 259.672 34.5292 257.709 40.6783 255.572C42.4585 254.953 44.2806 254.32 46.1672 253.851C51.0502 252.639 52.5361 255.15 53.9404 257.523C55.1837 259.624 56.363 261.616 59.7793 260.821C59.6239 260.151 59.433 259.4 59.227 258.589C57.8952 253.349 55.9312 245.62 58.845 241.13C60.3404 238.826 71.3921 218.471 92 180.066Z" fill="#B28B67"/>
    <path fill-rule="evenodd" clip-rule="evenodd" d="M147.695 99.332L156.342 97.8489C175.176 116.119 182.862 160.012 195.414 165.823C207.281 171.316 224.104 166 244.1 158.822L250.224 172.505C232.055 192.161 193.349 208.767 177.66 199.287C152.576 184.13 146.786 129.994 147.695 99.332Z" fill="#DB2721"/>
    <path fill-rule="evenodd" clip-rule="evenodd" d="M110 208C110 208 162.008 208 186.511 208C190.008 208 189.349 202.952 188.843 200.404C183.011 171.004 160.241 139.312 160.241 97.4607L138.172 94C119.917 123.358 113.605 159.505 110 208Z" fill="#DDE3E9"/>
    <path fill-rule="evenodd" clip-rule="evenodd" d="M137 94H136.748C87.2466 124.504 57.3306 171.791 47 235.859L63.0374 239C73.6609 226.623 86.7714 206.368 102.369 178.233C97.5834 195.181 94.0896 212.563 93 229H161.872C175.205 195.305 145.486 94 145.486 94H140.731H137Z" fill="#FF4133"/>
    <path fill-rule="evenodd" clip-rule="evenodd" d="M470.716 103.858C474.139 110.599 478.536 115.57 481.476 116.5C488.851 118.832 503.953 95.9617 504.763 83.731C505.572 71.5004 482.803 51.7215 470.19 69.0744C465.812 75.0971 464.944 82.371 465.985 89.3998L438.572 117.68L458.925 130.398L470.716 103.858Z" fill="#B28B67"/>
    <path fill-rule="evenodd" clip-rule="evenodd" d="M512.556 76.6508C509.725 81.1803 503.862 82.6614 499.243 80.1069C496.193 79.2981 492.545 77.8244 488.749 75.7921C488.272 77.3434 487.52 78.9748 486.453 80.6825C485.51 82.1905 484.345 83.6857 483.023 85.1181C482.82 83.685 482.147 82.4118 481.074 81.7417C478.074 79.8671 474.444 81.0301 472.806 83.6505C470.728 86.9761 471.145 90.5816 473.827 92.5253C468.276 95.7929 462.506 97.26 459.018 95.0809C452.394 90.9418 453.219 79.1429 459.168 69.6213C459.377 69.2867 459.592 68.9586 459.811 68.6369C456.607 68.7745 453.269 69.4931 449.907 70.2169L449.907 70.2169C442.763 71.7548 435.51 73.3161 429.206 69.3768C416.592 61.495 427.481 32.9234 445.103 43.9354C457.088 51.4243 461.892 56.8555 465.357 62.6141C468.125 60.4153 471.137 58.995 474.042 58.504C474.807 58.2788 475.799 58.2253 476.968 58.3321C477.698 58.3743 478.411 58.4836 479.103 58.6625C482.871 59.4511 487.805 61.4301 492.871 64.3548C493.817 64.9009 494.732 65.4595 495.611 66.0256C498.545 61.3633 504.7 59.95 509.374 62.8711C514.058 65.7978 515.482 71.9671 512.556 76.6508Z" fill="#191847"/>
    <path fill-rule="evenodd" clip-rule="evenodd" d="M355.408 294.088C355.408 294.088 391.392 304.153 417.5 304.153C443.608 304.153 466 288.653 466 288.653C466 288.653 430.786 278.323 408 278.323C385.214 278.323 355.408 294.088 355.408 294.088Z" fill="#1F28CF"/>
    <path fill-rule="evenodd" clip-rule="evenodd" d="M438.267 313.824C438.036 313.477 437.84 313.098 437.685 312.689C434.479 304.208 383.117 212.726 378 196H435.826C439.717 208.717 457.227 288.52 459.691 304.442C467.467 329.557 483.475 410.895 485.519 416.53C487.669 422.458 475.572 428.633 472.349 421.346C467.22 409.75 454.999 377.665 449.557 358.074C444.456 339.708 440.302 323.184 438.267 313.824Z" fill="#997659"/>
    <path fill-rule="evenodd" clip-rule="evenodd" d="M390.957 324.994C367.475 330.928 281.584 341.658 275.69 343.341C269.626 345.072 264.31 332.574 271.805 329.867C283.73 325.559 316.589 315.606 336.512 311.544C352.536 308.277 367.159 305.611 376.976 304.05C376.145 276.473 372.343 210.294 374.835 196H426C423.61 209.707 403.41 309.718 399.656 319.729C398.464 323.302 394.909 324.882 390.957 324.994V324.994Z" fill="#B28B67"/>
    <path fill-rule="evenodd" clip-rule="evenodd" d="M273.931 329.074C274.209 327.937 273.518 326.765 272.365 326.563C270.261 326.195 267.127 325.756 265.456 326.05C262.792 326.52 257.838 328.309 257.838 328.309C258.383 331.399 267.632 383.854 267.632 383.854C267.632 383.854 275.171 384.757 274.92 379.991C274.668 375.226 274.584 372.059 274.584 372.059L281.541 344.213C281.677 343.666 281.336 343.115 280.785 342.994L276.467 342.044C276.467 342.044 273.691 338.081 273.215 335.381C272.925 333.738 273.465 330.98 273.931 329.074Z" fill="#E4E4E4"/>
    <path fill-rule="evenodd" clip-rule="evenodd" d="M471.45 419.284C470.378 418.813 469.104 419.29 468.705 420.391C467.977 422.398 467 425.409 467 427.106C467 429.811 467.901 435 467.901 435C471.039 435 524.303 435 524.303 435C524.303 435 526.502 427.732 521.765 427.152C517.028 426.573 513.895 426.106 513.895 426.106L487.68 414.419C487.165 414.189 486.563 414.43 486.348 414.951L484.663 419.039C484.663 419.039 480.278 421.085 477.537 421.085C475.868 421.085 473.246 420.074 471.45 419.284Z" fill="#E4E4E4"/>
    <path fill-rule="evenodd" clip-rule="evenodd" d="M375 196C375 196 408.82 186.324 439 196C446 227.937 463.009 240.613 466 289.579C432 306.473 390 277.53 355 294.005C345 270.961 359 215.465 375 196Z" fill="#2B44FF"/>
    <path fill-rule="evenodd" clip-rule="evenodd" d="M504.769 253.033L488.226 217.081L473.608 228.908L494.885 255.679C497.611 269.188 499.859 275.436 501.63 274.423C503.123 273.568 503.181 272.026 503.235 270.605C503.276 269.499 503.315 268.466 504.027 267.89C505.654 266.574 510.804 269.662 515.565 272.801C520.326 275.94 520.104 272.924 519.51 271.166C516.118 265.313 511.204 259.269 504.769 253.033ZM334.497 230.678C339.363 226.178 369.445 175.66 369.445 175.66L388.925 183.226C388.925 183.226 348.464 234.62 345.654 237.636C342.004 241.555 342.596 249.511 342.997 254.906C343.059 255.74 343.117 256.514 343.153 257.201C339.65 257.391 338.834 255.223 337.975 252.937C337.003 250.355 335.976 247.622 330.955 247.969C329.015 248.103 327.11 248.41 325.249 248.711C318.82 249.748 312.914 250.701 307.902 244.127C307.107 243.085 306.895 240.227 310.377 239.395C319.055 237.322 332.118 232.878 334.497 230.678Z" fill="#B28B67"/>
    <path fill-rule="evenodd" clip-rule="evenodd" d="M456.312 115.079L464.916 116.793C465.487 156.848 477.643 197.711 501.383 239.38L463.008 261.129C443.889 207.433 438.545 157.556 456.312 115.079Z" fill="#191847"/>
    <path fill-rule="evenodd" clip-rule="evenodd" d="M382.177 203.02L454.063 230.615C454.063 230.615 452.398 160.284 468.695 117.828L448.251 106.273C420.688 127.14 402.922 159.038 382.177 203.02Z" fill="#DDE3E9"/>
    <path fill-rule="evenodd" clip-rule="evenodd" d="M337.676 221.286C379.584 135.61 447.775 106.09 447.775 106.09L447.786 106.112C447.791 106.108 447.796 106.104 447.801 106.1L449.216 106.644C451.723 107.706 456.834 109.93 456.834 109.93L456.326 126.915C446.645 154.619 423.667 241.019 423.667 241.019L376.613 222.957C375.233 226.792 373.929 230.719 372.714 234.735L337.676 221.286Z" fill="#2F3676"/>
    <path fill-rule="evenodd" clip-rule="evenodd" d="M376.48 223.327C382.465 206.613 389.908 191.618 397.766 178.478C392.635 195.679 387.598 216.812 389.589 228.36L376.48 223.327Z" fill="black" fill-opacity="0.1"/>
    <path fill-rule="evenodd" clip-rule="evenodd" d="M398.001 198.383L425.384 196.5L421.237 207.303L398.001 198.383Z" fill="white" fill-opacity="0.2"/>
    <path fill-rule="evenodd" clip-rule="evenodd" d="M646.353 105.972C640.83 111.136 634.998 114.304 631.917 114.172C624.19 113.841 617.82 87.1845 621.243 75.4146C624.665 63.6447 652.826 52.846 658.744 73.4666C660.798 80.6234 659.125 87.7555 655.743 94.0041L671.831 129.955L648.355 134.944L646.353 105.972Z" fill="#B28B67"/>
    <path fill-rule="evenodd" clip-rule="evenodd" d="M658.548 98.3328C658.708 84.5983 665.203 73.8787 662.675 68.2923C660.148 62.706 654.293 62.4581 654.293 62.4581C654.293 62.4581 648.953 51.4529 633.672 56.5137C618.392 61.5745 610.221 70.1038 617.386 83.5277C621.178 82.7217 625.464 80.3775 632.292 81.3815C635.543 81.8594 638.076 87.4007 638.076 87.4007L640.936 86.7928C640.936 86.7928 643.633 79.0045 648.069 79.9739C652.506 80.9433 651.799 88.4715 651.799 88.4715L655.505 98.9796L658.548 98.3328Z" fill="#191847"/>
    <path fill-rule="evenodd" clip-rule="evenodd" d="M724 196L649.694 320.227L593.985 425.25H581.986L675.326 196L724 196Z" fill="#997659"/>
    <path fill-rule="evenodd" clip-rule="evenodd" d="M598.55 419.284C599.622 418.813 600.896 419.29 601.295 420.391C602.023 422.398 603 425.409 603 427.106C603 429.811 602.099 435 602.099 435C598.961 435 545.697 435 545.697 435C545.697 435 543.498 427.732 548.235 427.152C552.972 426.573 556.105 426.106 556.105 426.106L582.32 414.419C582.835 414.189 583.437 414.43 583.652 414.951L585.337 419.039C585.337 419.039 589.722 421.085 592.463 421.085C594.132 421.085 596.754 420.074 598.55 419.284Z" fill="#E4E4E4"/>
    <path fill-rule="evenodd" clip-rule="evenodd" d="M609.457 408.433L586.317 401.433C586.317 401.433 601.524 355.971 623.595 301.374C645.665 246.778 671 196 671 196H736.356C736.356 196 708.189 260.232 676.634 312.725C645.079 365.219 609.457 408.433 609.457 408.433Z" fill="#DB2721"/>
    <path fill-rule="evenodd" clip-rule="evenodd" d="M728.883 196C735.896 239.654 749.423 295.427 750.699 297.149C751.55 298.296 782.187 308.562 842.61 327.947L840.018 338.528C767.964 328.132 729.998 320.066 726.119 314.331C720.301 305.728 691.251 237.763 680 196H728.883Z" fill="#B28B67"/>
    <path fill-rule="evenodd" clip-rule="evenodd" d="M821.37 318.8L816.805 335.842C762.913 340.569 729.892 337.153 717.742 325.596C705.593 314.039 691.745 270.84 676.201 196H738.522C748.37 257.284 753.876 289.212 755.04 291.785C756.203 294.357 778.313 303.363 821.37 318.8Z" fill="#FF4133"/>
    <path fill-rule="evenodd" clip-rule="evenodd" d="M838.069 326.074C837.791 324.937 838.482 323.765 839.635 323.563C841.739 323.195 844.873 322.756 846.544 323.05C849.208 323.52 854.162 325.309 854.162 325.309C853.617 328.399 844.368 380.854 844.368 380.854C844.368 380.854 836.829 381.757 837.08 376.991C837.332 372.226 837.416 369.059 837.416 369.059L830.459 341.213C830.323 340.666 830.664 340.115 831.215 339.994L835.533 339.044C835.533 339.044 838.309 335.081 838.785 332.381C839.075 330.738 838.535 327.98 838.069 326.074Z" fill="#E4E4E4"/>
    <path fill-rule="evenodd" clip-rule="evenodd" d="M576.364 202.901L615.154 193.78L614.88 212.832L580.42 212.456C568.016 218.676 561.665 220.763 561.366 218.716C561.113 216.99 562.3 215.984 563.392 215.058C564.243 214.336 565.038 213.663 565.051 212.735C565.081 210.615 559.429 208.414 553.977 206.557C548.525 204.699 551.054 203.001 552.817 202.383C559.567 201.457 567.416 201.63 576.364 202.901ZM790.446 224.605C785.58 220.105 734.222 157.863 734.222 157.863L713.808 165.787C713.808 165.787 776.479 228.547 779.289 231.563C782.939 235.482 782.347 243.438 781.946 248.833C781.884 249.667 781.826 250.441 781.79 251.128C785.293 251.318 786.109 249.15 786.968 246.864C787.939 244.282 788.967 241.549 793.988 241.896C795.928 242.03 797.833 242.337 799.694 242.638C806.123 243.675 812.029 244.628 817.041 238.054C817.836 237.012 818.048 234.154 814.566 233.322C805.888 231.249 792.825 226.805 790.446 224.605Z" fill="#997659"/>
    <path fill-rule="evenodd" clip-rule="evenodd" d="M653.337 114.521L637.74 121.731C647.489 158.908 634.664 189.678 583.662 200.505L594.905 248.884C642.067 237.443 674.568 204.327 663.947 152.521C661.198 139.11 657.812 125.355 653.337 114.521Z" fill="#AFB9C5"/>
    <path fill-rule="evenodd" clip-rule="evenodd" d="M784.091 216.432C750.281 161.568 709.265 124.827 661.043 106.207L659.507 106.797L659.455 106.817L659.448 106.837L637.329 121.7C648.511 150.831 650.386 175.086 652.188 198.405C652.966 208.475 653.731 218.37 655.226 228.408L720.722 203.267C725.713 213.509 730.46 224.184 735.05 235.257L784.091 216.432Z" fill="#C5CFD6"/>
    <path fill-rule="evenodd" clip-rule="evenodd" d="M720.722 203.267C710.562 182.413 699.396 163.348 686.507 146.346C695.576 166.338 705.655 191.588 707.411 208.377L720.722 203.267Z" fill="black" fill-opacity="0.1"/>
</svg>
