<svg width="423" height="330" viewBox="0 0 423 330" fill="none" 
    xmlns="http://www.w3.org/2000/svg">
    <path fill-rule="evenodd" clip-rule="evenodd" d="M219.397 259.427C220.782 249.837 224.442 216.588 224.211 201.112C223.948 183.446 223.202 168.084 222.528 162.488C220.918 149.144 203.511 154.526 203.021 161.617C201.908 177.715 210.225 254.191 210.601 259.018C210.976 263.846 218.526 265.454 219.397 259.427Z" fill="#B28B67"/>
    <path fill-rule="evenodd" clip-rule="evenodd" d="M261.535 228.233L238.597 155.766C232.717 143.882 212.961 156.986 214.772 163.808C218.882 179.294 241.771 229.86 242.996 234.474L261.535 228.233Z" fill="#1F28CF"/>
    <path fill-rule="evenodd" clip-rule="evenodd" d="M259.98 237.154C260.757 236.194 262.112 235.992 262.912 236.825C263.942 237.9 265.192 239.321 265.649 240.326C266.48 242.15 267.498 245.968 267.498 245.968C265.493 247.076 231.449 265.874 231.449 265.874C231.449 265.874 227.811 261.748 230.66 259.685C233.51 257.623 235.369 256.202 235.369 256.202L248.339 239.322C248.701 238.85 249.348 238.77 249.754 239.147L251.882 241.119C251.882 241.119 255.313 240.951 257.065 239.984C257.976 239.48 259.106 238.234 259.98 237.154Z" fill="#030B0B"/>
    <path fill-rule="evenodd" clip-rule="evenodd" d="M219.282 257.261C220.281 256.6 221.746 256.876 222.379 257.955C223.188 259.334 224.136 261.099 224.396 262.202C224.874 264.227 225.164 268.207 225.164 268.207C222.982 268.544 185.938 274.256 185.938 274.256C185.938 274.256 183.124 269.052 186.316 268.11C189.508 267.168 191.605 266.483 191.605 266.483L207.478 255.134C207.945 254.8 208.64 254.948 208.972 255.452L210.686 258.058C210.686 258.058 214.098 259.119 216.004 258.825C216.958 258.678 218.24 257.951 219.282 257.261Z" fill="#1C1212"/>
    <path fill-rule="evenodd" clip-rule="evenodd" d="M200.683 167.002C199.261 187.208 204.865 234.739 204.557 239.189L223.751 240.062C223.751 240.062 223.978 176.789 225.251 176.165C226.525 175.54 275.123 183.673 289.824 184.329C311.022 185.276 320.804 171.29 323.391 144.686L281.397 142.81C272.777 143.412 227.497 151.095 210.699 153.682C203.508 154.789 201.075 161.435 200.683 167.002Z" fill="#2B44FF"/>
    <path fill-rule="evenodd" clip-rule="evenodd" d="M290.723 283.272C321.414 283.279 348.344 261.02 348.334 233.554C348.325 206.089 321.379 183.818 290.688 183.811C259.997 183.804 235.124 206.064 235.134 233.529C235.144 260.995 260.032 283.265 290.723 283.272Z" fill="#C5CFD6"/>
    <path fill-rule="evenodd" clip-rule="evenodd" d="M292.277 275.428C318.581 275.434 339.899 256.292 339.891 232.674C339.882 209.055 318.551 189.904 292.247 189.898C265.942 189.892 244.625 209.034 244.633 232.652C244.641 256.271 265.972 275.422 292.277 275.428Z" fill="#89C5CC"/>
    <path fill-rule="evenodd" clip-rule="evenodd" d="M215.093 102.649L242.414 92.7075L248.43 105.256L221.386 108.515C213.73 113.864 209.45 115.882 208.547 114.567C207.786 113.459 208.384 112.677 208.935 111.957C209.363 111.396 209.764 110.873 209.471 110.262C208.801 108.865 203.666 107.995 198.799 107.329C193.933 106.663 195.353 105.29 196.528 104.704C201.499 103.409 207.687 102.724 215.093 102.649ZM232.834 125.683L257.658 109.085L261.941 122.448L237.896 131.278C230.735 138.89 226.809 142.021 226.121 140.672C225.54 139.535 226.129 138.52 226.671 137.586C227.093 136.858 227.487 136.178 227.278 135.527C226.802 134.04 222.356 133.997 218.13 134.14C213.904 134.282 215.263 132.431 216.343 131.535C220.818 129.108 226.315 127.157 232.834 125.683Z" fill="#B28B67"/>
    <path fill-rule="evenodd" clip-rule="evenodd" d="M295.609 62.1642C281.044 85.9934 261.156 103.872 232.866 122.12L242.228 134.285C273.084 124.238 289.43 118.075 298.85 95.3682C301.214 89.6693 303.885 71.286 305.743 61.6338L295.609 62.1642Z" fill="#2026A2"/>
    <path fill-rule="evenodd" clip-rule="evenodd" d="M325.753 145.053L268.844 142.524C268.844 142.524 292.433 83.2741 294.437 60.8916C294.505 60.1308 295.98 58.8505 296.577 59.0533C303.136 61.2782 311.008 58.2489 311.008 58.2489C322.935 80.9649 325.674 108.402 325.753 145.053Z" fill="#F2F2F2"/>
    <path fill-rule="evenodd" clip-rule="evenodd" d="M300.489 162.525L330.833 163.873C337.988 131.075 328.56 84.7403 318.451 61.1314C318.065 60.2298 317.228 58.5253 314.979 58.4254L306.162 58.0335C304.393 62.4289 302.702 66.8263 301.104 71.1941C300.078 71.7142 299.018 72.2567 297.924 72.8168C284.207 79.8402 265.08 89.6332 237.654 92.6819L244.871 107.149C260.776 109.185 276.124 110.338 289.499 109.47C282.675 139.346 284.053 161.794 300.489 162.525Z" fill="#1F28CF"/>
    <path fill-rule="evenodd" clip-rule="evenodd" d="M297.641 51.7702C293.759 53.0731 290.343 53.6198 288.46 53.2517C281.907 51.971 281.304 33.7935 286.375 26.6273C291.445 19.4612 317.511 16.3377 318.825 30.5361C319.325 35.9331 316.004 40.6943 311.335 44.4529L317.759 59.1429H301.345L295.19 57.5L297.641 51.7702Z" fill="#B28B67"/>
    <path fill-rule="evenodd" clip-rule="evenodd" d="M301.257 32.1042C299.44 30.0534 297.696 28.4891 295.428 27.5807C286.196 27.6913 285.115 26.4364 285.115 22.2067C286.606 21.3976 291.867 20.0353 297.759 19.6521C300.765 18.9999 304.326 19.1226 307.756 20.2105C311.99 21.1214 315.576 23.0833 317.16 26.7563C322.889 34.2538 318.54 42.0586 312.68 44.7247C311.12 43.3233 309.758 41.9652 308.543 40.665C309.519 39.9422 310.125 38.9334 310.125 37.8173C310.125 35.6188 307.774 33.8365 304.875 33.8365C304.662 33.8365 304.452 33.8462 304.245 33.8649C304.115 36.6137 303.578 45.9133 302.167 49.1436C300.505 52.9519 290.802 53.887 287.418 53.887C284.495 53.887 284.594 51.7883 284.666 50.2843C284.676 50.0677 284.686 49.8634 284.686 49.6795C284.686 49.2953 285.345 49.2963 286.09 49.2974C287.057 49.2988 288.168 49.3005 288.168 48.4593C288.168 47.5423 286.497 46.8389 285.001 46.2095C284.068 45.8168 283.203 45.4529 282.856 45.0838C281.759 43.9196 281.389 42.3494 283.044 42.3494C283.949 42.3494 285.19 42.7448 286.683 43.2205C288.937 43.9387 291.765 44.8398 294.877 44.8398C300.018 44.8398 301.241 32.2631 301.257 32.1042Z" fill="#191847"/>
    <path d="M178.961 146.252L176.909 147.669L140.799 113.75L142.851 112.333L178.961 146.252Z" fill="#1A1616"/>
    <path d="M156.93 156.243L154.806 156.273L154.21 129.091L156.334 129.061L156.93 156.243Z" fill="#1A1616"/>
    <path d="M151.679 128.103L151.096 125.746L153.613 128.566L155.012 130.15L151.679 128.103Z" fill="#1A1616"/>
    <path fill-rule="evenodd" clip-rule="evenodd" d="M182.938 151.079L184.041 150.776V273.438H153.122L161.151 172.662H24.8061L28.4236 273.383H0V172.662V151.079H182.938Z" fill="#202878"/>
    <g opacity="0.7">
        <path fill-rule="evenodd" clip-rule="evenodd" d="M16.567 68.1949C22.388 67.9908 29.5871 70.2873 30.2081 74.5639C30.6593 77.6712 30.5195 80.7696 31.2177 83.8723C31.776 86.352 32.9567 88.7324 34.567 90.9911C36.1154 93.1632 39.3275 95.0121 40.1629 97.3325C40.6953 98.811 40.3973 100.891 39.663 102.337C38.77 104.095 39.2446 103.956 41.0239 105.432C44.5106 108.323 47.6502 111.288 49.8703 114.742C53.0684 119.716 55.165 125.53 53.9781 130.974C53.8271 131.666 53.6481 134.147 52.2394 134.32C50.6662 134.514 51.4018 133.095 51.4858 132.637C52.0211 129.712 52.4967 127.155 51.851 124.185C49.3595 112.724 37.1946 105.173 29.2736 95.4454C28.8381 94.9437 27.9189 93.7493 27.2797 92.9612C26.2706 91.7171 25.2562 89.3497 23.8901 88.4272C21.3174 86.6893 23.6827 90.1832 24.184 90.8502C24.8178 91.6939 25.5151 92.5906 26.1646 93.3299C29.1365 96.7568 32.4536 100.498 35.5229 104.03C22.2484 106.074 12.8997 95.2882 9.33736 88.1969C6.40233 82.3545 2.89067 68.6948 16.567 68.1949" fill="#69A1AC"/>
        <path fill-rule="evenodd" clip-rule="evenodd" d="M94.5869 57.3453C84.8558 57.8672 78.6087 62.2071 75.7006 68.2772C74.1333 71.5484 73.9536 74.909 73.0826 78.2707C71.7724 83.3285 68.9533 87.1613 63.4437 90.7647C61.7372 91.8807 60.4797 93.0265 59.5858 94.2523C57.8112 95.4763 56.2664 96.8613 55.1315 98.5546C53.6818 100.717 53.2716 103.312 54.9454 105.468C55.3954 106.047 56.5181 107.211 57.6817 107.74C53.3254 114.01 50.9301 120.878 51.2001 127.737C51.3632 131.878 51.6623 136.02 52.0112 140.155C52.1051 141.266 52.6401 143.099 53.4437 141.237C54.1791 139.534 53.2569 136.86 53.1715 135.08C52.7563 126.412 52.4013 118.53 57.681 110.431C58.2346 109.582 58.8216 108.74 59.433 107.905C59.4689 107.89 59.5022 107.873 59.5359 107.857C59.5592 107.869 59.5804 107.882 59.6037 107.894C59.6428 107.847 59.6962 107.791 59.7586 107.728C59.9339 107.606 60.0871 107.452 60.2326 107.279C60.7009 106.84 61.2309 106.325 61.2338 106.043C61.2338 106.041 61.232 106.037 61.232 106.035C64.5004 102.429 68.244 99.0219 72.0679 95.6813C72.0392 95.7055 76.2155 91.8622 75.5697 93.9877C75.2585 95.0119 72.1866 96.9624 70.9459 98.0474C68.2013 100.461 64.9784 103.519 62.3002 106.477C61.9398 106.617 61.4307 107.304 61.0624 107.816C60.8591 108.075 60.6694 108.337 60.4829 108.564C69.9727 110.684 77.3547 106.415 82.3885 101.45C82.3945 101.444 82.3999 101.438 82.4057 101.432C83.9375 100.06 85.5066 98.6983 87.467 97.6138C90.7376 95.8043 94.2402 95.485 98.0963 94.5944C108.612 92.166 113.083 82.9546 114.503 76.1198C116.106 68.4089 108.269 56.585 94.5869 57.3453" fill="#89C5CC"/>
        <path fill-rule="evenodd" clip-rule="evenodd" d="M75.3647 35.7519C65.3773 42.7773 60.5522 52.5218 56.7315 61.6826C52.4643 71.9142 49.6458 82.3037 49.5376 92.9415C49.4667 99.9306 49.1854 106.963 49.789 113.944C50.0031 116.423 50.3688 118.907 50.9502 121.36C50.998 121.561 52.2989 127.038 53.5435 125.761C54.2514 125.036 52.2101 120.081 52.0559 119.255C51.1882 114.607 50.9866 109.924 51.0289 105.242C51.0985 97.533 50.7622 89.8636 51.9182 82.183C52.0906 81.0362 52.227 79.8318 52.63 78.7099C53.0578 77.5173 52.5129 78.0379 53.9067 77.5657C55.261 77.1067 56.9346 77.1723 58.3398 76.5964C63.9136 74.312 66.7649 68.4443 68.9841 64.5942C71.5223 60.1915 73.065 55.4966 74.2971 50.8634C75.2018 47.4592 75.8487 44.0757 76.2147 40.6277C76.3301 39.541 76.3369 38.4047 76.6529 37.3362C76.738 37.0479 77.1651 36.5381 77.1496 36.2828C77.1168 35.7426 76.6344 35.4249 76.5949 34.971C76.1768 35.2253 75.7663 35.4857 75.3647 35.7519" fill="#89C5CC"/>
        <path fill-rule="evenodd" clip-rule="evenodd" d="M20.9067 129.355C20.9067 140.974 34.842 150.392 52.0322 150.392C69.2224 150.392 83.1577 140.974 83.1577 129.355" fill="#89C5CC"/>
        <path fill-rule="evenodd" clip-rule="evenodd" d="M73.3628 110.936C81.0662 110.552 89.669 114.753 93.3848 119.124C96.3803 122.648 95.8757 127.276 94.0255 131.02C92.7865 133.527 90.0825 137.101 85.5731 137.136C79.9313 137.179 79.6592 132.466 79.5501 129.711C79.4051 126.048 78.7203 122.858 74.4499 120.361C73.9227 120.053 73.3695 119.764 72.8163 119.476C72.3252 119.22 71.8342 118.964 71.3615 118.694C71.2859 118.651 71.21 118.608 71.1338 118.564C69.6238 117.707 68.0379 116.806 67.8449 115.392C67.5649 113.343 69.2762 112.974 71.8891 113.355C71.9734 113.367 72.2024 113.426 72.5138 113.505C73.8482 113.847 76.6956 114.577 76.1569 113.705C75.9542 113.376 75.2134 113.116 74.2784 112.921C71.8589 112.743 68.9736 112.537 68.1438 112.66C59.1918 113.987 55.7064 122.368 54.7807 127.693C54.6808 128.268 54.6001 128.845 54.5296 129.422H52.8849C52.9991 128.028 53.1498 126.635 53.4947 125.256C54.8141 119.982 58.9395 112.235 67.9873 111.379C68.3211 111.347 69.549 111.341 71.0363 111.4C71.7412 111.134 72.5308 110.973 73.3628 110.936Z" fill="#69A1AC"/>
    </g>
</svg>
